PathFileType	4	(X/Y/Z)	/Users/itak/Documents/Research/Walk-IL/dataset/trc/00179_00008.trc
DataRate	CameraRate	NumFrames	NumMarkers	Units	OrigDataRate	OrigDataStartFrame	OrigNumFrames
100.000000	100.000000	4	53	mm	100.000000	558	745
Frame#	Time	RPSI			LPSI			L3			STRN			T10			C7			CLAV			RBAK			LBAK			LSHO			LUPA			LAEL			LAOL			LWTS			LWPS			LFRA			LIFD			LHPS			LHTS			RSHO			RUPA			RAEL			RAOL			RWTS			RWPS			RFRA			RIFD			RHTS			RHPS			RBHD			LFHD			RFHD			LBHD			LHIP			RHIP			RASI			LASI			LKNE			LTHI			LANK			LTIP			LTOE			LMT1			LMT5			LHEE			RKNE			RTHI			RANK			RTIP			RTOE			RMT1			RMT5			RHEE			
		X1	Y1	Z1	X2	Y2	Z2	X3	Y3	Z3	X4	Y4	Z4	X5	Y5	Z5	X6	Y6	Z6	X7	Y7	Z7	X8	Y8	Z8	X9	Y9	Z9	X10	Y10	Z10	X11	Y11	Z11	X12	Y12	Z12	X13	Y13	Z13	X14	Y14	Z14	X15	Y15	Z15	X16	Y16	Z16	X17	Y17	Z17	X18	Y18	Z18	X19	Y19	Z19	X20	Y20	Z20	X21	Y21	Z21	X22	Y22	Z22	X23	Y23	Z23	X24	Y24	Z24	X25	Y25	Z25	X26	Y26	Z26	X27	Y27	Z27	X28	Y28	Z28	X29	Y29	Z29	X30	Y30	Z30	X31	Y31	Z31	X32	Y32	Z32	X33	Y33	Z33	X34	Y34	Z34	X35	Y35	Z35	X36	Y36	Z36	X37	Y37	Z37	X38	Y38	Z38	X39	Y39	Z39	X40	Y40	Z40	X41	Y41	Z41	X42	Y42	Z42	X43	Y43	Z43	X44	Y44	Z44	X45	Y45	Z45	X46	Y46	Z46	X47	Y47	Z47	X48	Y48	Z48	X49	Y49	Z49	X50	Y50	Z50	X51	Y51	Z51	X52	Y52	Z52	X53	Y53	Z53	

559	5.58	-656.102294921875	1054.807861328125	646.7634887695312	-561.7308959960938	1056.005981445312	568.747802734375	-610.3370971679688	1093.303588867188	609.047119140625	-439.3094787597656	1296.428833007812	813.4640502929688	-622.0910034179688	1254.703125	577.5008544921875	-561.7342529296875	1520.697143554688	627.0125732421875	-444.6121826171875	1410.736572265625	786.45703125	-695.8867797851562	1352.496826171875	638.9479370117188	-489.3939514160156	1494.065063476562	558.352294921875	-381.9669799804688	1478.248657226562	569.723388671875	-346.4603271484375	1347.622314453125	497.1514892578125	-315.8013000488281	1131.53662109375	494.0644836425781	-401.85986328125	1108.569458007812	506.0262145996094	-227.1908264160156	939.4295043945312	639.6362915039062	-250.6329345703125	892.1613159179688	562.0979614257812	-280.8040771484375	1024.750732421875	514.3177490234375	-195.3069915771484	771.3570556640625	709.0916137695312	-226.0901489257812	833.0188598632812	596.1865234375	-189.7473449707031	867.244384765625	649.6749267578125	-664.3575439453125	1504.815673828125	789.085205078125	-733.50634765625	1442.257690429688	814.9025268554688	-805.8628540039062	1159.356811523438	845.6305541992188	-731.357421875	1143.0107421875	781.4431762695312	-678.9755859375	963.5814208984375	979.4036865234375	-757.9275512695312	930.037353515625	953.3334350585938	-798.757080078125	1089.316650390625	886.5564575195312	-620.750732421875	785.8716430664062	1012.429443359375	-657.2866821289062	878.8836669921875	1022.104431152344	-725.8881225585938	856.4940795898438	987.653564453125	-533.1078491210938	1695.844360351562	765.9279174804688	-317.9376831054688	1676.808227539062	744.7919921875	-383.0824890136719	1690.302368164062	855.2266235351562	-467.7362060546875	1690.100830078125	644.9432373046875	-407.6402587890625	982.2439575195312	575.7202758789062	-661.8139038085938	1016.502197265625	843.8043212890625	-565.9424438476562	1043.322143554688	872.7352294921875	-369.7511901855469	1025.123413085938	707.433837890625	-455.6817016601562	490.3630981445312	713.0504760742188	-418.2282104492188	626.1758422851562	666.62158203125	-567.396240234375	40.13932800292969	703.41748046875	-500.1690979003906	262.2250061035156	707.2789306640625	-450.8653564453125	46.07018661499023	890.1348266601562	-518.7005615234375	40.51354217529297	880.3201293945312	-469.4802856445312	41.01522064208984	764.662109375	-653.7464599609375	38.3885612487793	705.8530883789062	-571.7452392578125	540.05810546875	983.1151123046875	-610.3305053710938	810.5123291015625	944.3030395507812	-761.015625	94.71829986572266	830.0146484375	-587.249755859375	416.5189819335938	971.487060546875	-641.113525390625	60.2356071472168	1012.02490234375	-618.4710693359375	66.32853698730469	944.7432861328125	-743.147705078125	65.72868347167969	941.5181274414062	-721.0526123046875	100.7915115356445	756.1585693359375	
560	5.59	-653.247802734375	1054.50732421875	655.52685546875	-560.4754028320312	1055.708862304688	575.4539794921875	-608.5026245117188	1093.077392578125	616.4943237304688	-433.373779296875	1296.021118164062	818.227294921875	-620.0198364257812	1254.626831054688	585.302734375	-558.7465209960938	1520.444702148438	634.078369140625	-439.0701599121094	1410.4287109375	791.6030883789062	-692.686767578125	1352.29248046875	647.9617309570312	-487.485107421875	1493.958862304688	564.1920166015625	-379.7962036132812	1478.2431640625	574.0436401367188	-344.4395141601562	1347.603393554688	501.4997253417969	-312.2369689941406	1131.499633789062	499.7177124023438	-398.0932312011719	1108.020263671875	512.273681640625	-220.9175109863281	942.2138061523438	647.1146240234375	-244.4406433105469	893.5603637695312	570.4376220703125	-276.1656799316406	1025.225463867188	521.0151977539062	-186.6852264404297	775.677978515625	718.8699951171875	-219.0972137451172	835.221435546875	605.17333984375	-182.6586608886719	870.6286010742188	657.9015502929688	-658.8428344726562	1504.338134765625	797.6590576171875	-727.51611328125	1441.922485351562	824.41943359375	-800.2122802734375	1159.31787109375	856.3384399414062	-726.7369995117188	1142.6865234375	791.1227416992188	-672.1207275390625	963.0687255859375	988.1608276367188	-751.6830444335938	929.8760375976562	963.4517822265625	-792.8367919921875	1089.341796875	897.2361450195312	-614.382080078125	785.0523071289062	1020.358215332031	-650.0143432617188	878.3316040039062	1030.542114257812	-719.4581298828125	856.2218627929688	997.2958374023438	-528.3565673828125	1695.417602539062	772.57177734375	-313.3486633300781	1676.553833007812	749.7957763671875	-377.7137756347656	1689.7890625	860.7492065429688	-463.9085388183594	1689.942016601562	651.1030883789062	-406.238525390625	982.1185302734375	579.4593505859375	-654.9087524414062	1016.242126464844	852.7301635742188	-558.4408569335938	1043.086303710938	879.5865478515625	-365.52490234375	1024.9208984375	710.352783203125	-454.0813293457031	490.0215759277344	715.1259155273438	-416.4283752441406	625.9720458984375	669.2349853515625	-567.4535522460938	40.26702117919922	703.5206298828125	-499.4904479980469	262.0799865722656	708.4348754882812	-450.9386901855469	46.01960754394531	890.18017578125	-519.0115966796875	40.18309020996094	880.37646484375	-469.5464782714844	41.07280731201172	764.6807861328125	-653.8069458007812	38.47538757324219	705.9317626953125	-556.21728515625	541.45458984375	993.130615234375	-599.2103881835938	811.0396118164062	953.025146484375	-740.7134399414062	88.01544189453125	862.1707763671875	-569.1658935546875	417.8321533203125	985.217041015625	-610.8538818359375	61.77842712402344	1038.706787109375	-591.9592895507812	66.40135192871094	970.2427978515625	-716.3973999023438	62.54045104980469	973.7294311523438	-704.9215698242188	92.45896911621094	786.1661987304688	
561	5.600000000000001	-650.3233642578125	1054.143310546875	664.2470092773438	-559.1160278320312	1055.343627929688	582.1986083984375	-606.5498657226562	1092.75634765625	623.974609375	-427.4228210449219	1295.5625	822.9708251953125	-617.9317626953125	1254.485229492188	593.1485595703125	-555.6670532226562	1520.10888671875	641.1991577148438	-433.50146484375	1410.064086914062	796.715087890625	-689.4095458984375	1352.026123046875	657.0399169921875	-485.5150146484375	1493.763427734375	570.0971069335938	-377.5816345214844	1478.155029296875	578.449462890625	-342.4947814941406	1347.474975585938	505.8649291992188	-308.7605285644531	1131.370727539062	505.4207763671875	-394.4212036132812	1107.422973632812	518.5400390625	-214.9517059326172	944.7333374023438	654.4669189453125	-238.4412078857422	894.8532104492188	578.5472412109375	-271.6597290039062	1025.620361328125	527.673828125	-178.6107177734375	779.5862426757812	728.2129516601562	-212.3521881103516	837.2644653320312	613.8419799804688	-175.9491729736328	873.7103881835938	665.9412841796875	-653.24462890625	1503.819458007812	806.2277221679688	-721.3895263671875	1441.580322265625	833.89892578125	-794.4591064453125	1159.249145507812	867.0048828125	-722.0065307617188	1142.345825195312	800.814453125	-665.48193359375	962.260498046875	996.751953125	-745.6446533203125	929.5496826171875	973.2882690429688	-786.8910522460938	1089.309204101562	907.8135375976562	-608.4849853515625	783.8246459960938	1027.966552734375	-643.1162719726562	877.389404296875	1038.732666015625	-713.352294921875	855.7036743164062	1006.621215820312	-523.5427856445312	1694.922607421875	779.2191772460938	-308.6948852539062	1676.192993164062	754.8207397460938	-372.2874145507812	1689.159790039062	866.2863159179688	-460.0059509277344	1689.723754882812	657.2757568359375	-404.7161865234375	981.9627685546875	583.3187866210938	-647.8430786132812	1015.915649414062	861.653564453125	-550.9185791015625	1042.800903320312	886.4116821289062	-361.3042907714844	1024.692016601562	713.3396606445312	-452.364990234375	489.649658203125	717.2819213867188	-414.5382385253906	625.759033203125	671.944091796875	-567.499267578125	40.39558792114258	703.6190185546875	-498.7553405761719	261.9304809570312	709.6332397460938	-451.0155944824219	45.94646453857422	890.2158813476562	-519.2738037109375	39.89560317993164	880.4404907226562	-469.5950927734375	41.11766815185547	764.6984252929688	-653.823486328125	38.55256652832031	706.0116577148438	-541.0592651367188	542.7578125	1002.564819335938	-588.211181640625	811.39697265625	961.3461303710938	-719.0457153320312	81.86022186279297	893.5948486328125	-551.2333374023438	419.175048828125	998.2308959960938	-579.7548217773438	63.80649185180664	1063.889282226562	-564.5938720703125	66.96220397949219	994.4563598632812	-688.470458984375	59.97795486450195	1004.6865234375	-687.4343872070312	84.63331604003906	815.7084350585938	
562	5.61	-647.2803344726562	1053.711547851562	672.9473266601562	-557.6217041015625	1054.91845703125	588.9920043945312	-604.3971557617188	1092.34521484375	631.5333251953125	-421.4540405273438	1295.055053710938	827.7053833007812	-615.7985229492188	1254.27392578125	601.0383911132812	-552.4841918945312	1519.711059570312	648.3731689453125	-427.9102172851562	1409.644897460938	801.8049926757812	-686.036865234375	1351.693481445312	666.186279296875	-483.4489135742188	1493.499389648438	576.0770263671875	-375.3145141601562	1477.9951171875	582.9473266601562	-340.6226806640625	1347.238647460938	510.2567749023438	-305.38037109375	1131.159301757812	511.1622619628906	-390.8534851074219	1106.783081054688	524.8164672851562	-209.2928466796875	946.9786376953125	661.6827392578125	-232.6618347167969	896.023681640625	586.4160766601562	-267.3043212890625	1025.932983398438	534.2783203125	-171.0693511962891	783.0670776367188	737.128173828125	-205.8739471435547	839.1223754882812	622.1915283203125	-169.6156463623047	876.4758911132812	673.7772216796875	-647.5597534179688	1503.260498046875	814.7957153320312	-715.1328735351562	1441.22216796875	843.343017578125	-788.6048583984375	1159.141235351562	877.6154174804688	-717.170166015625	1141.993286132812	810.4962768554688	-659.0597534179688	961.1654052734375	1005.189697265625	-739.8131103515625	929.062255859375	982.839111328125	-780.9183349609375	1089.20703125	918.2720947265625	-603.01904296875	782.2167358398438	1035.270629882812	-636.5874633789062	876.0731811523438	1046.690795898438	-707.5556640625	854.943115234375	1015.630981445312	-518.67138671875	1694.364990234375	785.8652954101562	-303.9799499511719	1675.728637695312	759.8700561523438	-366.8082275390625	1688.421630859375	871.8388671875	-456.0267028808594	1689.446655273438	663.4603271484375	-403.0694885253906	981.7678833007812	587.2887573242188	-640.5982666015625	1015.553833007812	870.576416015625	-543.3385620117188	1042.477172851562	893.1984252929688	-357.0642395019531	1024.438232421875	716.3944091796875	-450.5314025878906	489.2429504394531	719.518310546875	-412.5519104003906	625.533935546875	674.7327270507812	-567.53857421875	40.52182769775391	703.7134399414062	-497.9690551757812	261.771728515625	710.8682250976562	-451.0910034179688	45.84889984130859	890.2453002929688	-519.4744262695312	39.65555572509766	880.5134887695312	-469.6192626953125	41.15138626098633	764.719482421875	-653.8095092773438	38.62535858154297	706.0977783203125	-526.3417358398438	543.98974609375	1011.433776855469	-577.3560180664062	811.6180419921875	969.3211669921875	-696.0521240234375	76.21146392822266	924.1185913085938	-533.5280151367188	420.5469360351562	1010.549255371094	-547.982421875	66.35868835449219	1087.538818359375	-536.4901733398438	68.03384399414062	1017.367919921875	-659.487060546875	58.0717658996582	1034.21923828125	-668.5875854492188	77.33615875244141	844.60595703125	
